<?xml version="1.0" encoding="UTF-8" standalone="no"?>
<!-- Created with Inkscape (http://www.inkscape.org/) -->

<svg
   width="210mm"
   height="297mm"
   viewBox="0 0 210 297"
   version="1.1"
   id="svg737"
   inkscape:export-filename="/Users/dhaavu/downloads/bitmap.png"
   inkscape:export-xdpi="96"
   inkscape:export-ydpi="96"
   inkscape:version="1.1.1 (c3084ef, 2021-09-22)"
   sodipodi:docname="timebox.svg"
   xmlns:inkscape="http://www.inkscape.org/namespaces/inkscape"
   xmlns:sodipodi="http://sodipodi.sourceforge.net/DTD/sodipodi-0.dtd"
   xmlns="http://www.w3.org/2000/svg"
   xmlns:svg="http://www.w3.org/2000/svg">
  <sodipodi:namedview
     id="namedview739"
     pagecolor="#505050"
     bordercolor="#eeeeee"
     borderopacity="1"
     inkscape:pageshadow="0"
     inkscape:pageopacity="0"
     inkscape:pagecheckerboard="0"
     inkscape:document-units="mm"
     showgrid="false"
     inkscape:zoom="0.48462402"
     inkscape:cx="252.77327"
     inkscape:cy="561.25984"
     inkscape:window-width="1312"
     inkscape:window-height="766"
     inkscape:window-x="0"
     inkscape:window-y="25"
     inkscape:window-maximized="0"
     inkscape:current-layer="layer1" />
  <defs
     id="defs734" />
  <g
     inkscape:label="Layer 1"
     inkscape:groupmode="layer"
     id="layer1">
    <path
       id="path253"
       style="fill:#f2f2f2;stroke-width:0.967732"
       d="m 106.19532,33.301539 c -12.907814,0 -14.079058,0.517352 -13.554212,5.985165 0.258053,2.688438 0.739331,3.258104 2.969329,3.514514 2.43428,0.280092 2.659729,0.651501 2.640147,4.354773 l -0.02067,4.048331 -6.027539,2.013831 c -3.315195,1.107453 -6.690857,2.313398 -7.50135,2.680456 -1.005763,0.455057 -1.989707,-0.207405 -3.099554,-2.086177 -1.553438,-2.629734 -1.536952,-2.841628 0.365352,-4.743897 2.13414,-2.134109 1.833793,-5.493928 -0.573608,-6.417696 -0.726485,-0.278761 -4.618646,1.749418 -8.649084,4.507219 -5.36993,3.674326 -7.335017,5.587044 -7.352006,7.157702 -0.03342,3.007284 2.985831,4.4487 5.553149,2.650485 1.836089,-1.286041 2.16418,-1.18613 3.891754,1.185458 l 1.886706,2.589504 -4.386813,5.386236 C 63.1956,77.350547 59.296647,90.898872 61.481254,103.85072 64.51122,121.8144 77.832395,136.3716 95.624388,141.16317 v -0.003 c 25.450992,6.85423 52.382852,-10.79044 56.844592,-37.24269 2.21716,-13.144752 -1.96017,-27.512884 -11.11405,-38.227641 -4.52358,-5.294823 -4.5075,-5.118587 -0.90795,-9.9689 0.13031,-0.175613 1.31397,0.386745 2.63084,1.249535 2.21288,1.452737 2.51637,1.449295 4.00337,-0.03772 2.5728,-2.572841 1.47415,-4.330477 -6.10143,-9.76323 -5.8055,-4.16395 -7.46107,-4.928025 -8.94829,-4.132047 -2.41344,1.291694 -2.3279,4.967723 0.15193,6.516398 l 1.97714,1.23455 -2.04226,2.868559 c -1.79844,2.525644 -2.29431,2.73218 -4.15426,1.729093 -1.16167,-0.626442 -4.50732,-1.881097 -7.43469,-2.787943 -5.23184,-1.620608 -5.32786,-1.71679 -5.62033,-5.634282 -0.28637,-3.835532 -0.1899,-3.985286 2.55798,-3.985286 3.00643,0 4.03025,-1.363467 4.03025,-5.367631 0,-3.538077 -2.74003,-4.309815 -15.30191,-4.309815 z m 0.78548,24.677047 c 9.02564,0 10.78669,0.292942 15.75615,2.621545 3.07704,1.441852 8.14175,5.051523 11.25512,8.021217 22.64909,21.603517 11.68312,59.645502 -19.0748,66.171672 -6.3208,1.34105 -10.84886,1.27412 -17.129707,-0.25322 C 78.364811,129.81647 65.142957,110.12077 68.311327,90.630339 70.329862,78.2132 79.629731,66.034596 91.252561,60.58773 96.190874,58.273552 97.967133,57.978586 106.9808,57.978586 Z m 5.2e-4,3.387908 c -2.67279,0 -2.90318,0.26861 -2.90318,3.386873 0,3.118429 0.23041,3.387389 2.90318,3.387389 2.67274,0 2.90318,-0.269182 2.90318,-3.387389 0,-3.118411 -0.2304,-3.386873 -2.90318,-3.386873 z m -16.122533,3.558437 c -0.453032,0.03695 -0.999034,0.373345 -1.840195,0.924491 -2.364624,1.54936 -2.190157,3.119633 0.760677,6.851779 v 5.16e-4 c 0.717804,0.907643 1.440204,0.838161 3.187917,-0.306956 l 2.259295,-1.480532 -1.943033,-3.293337 C 92.110346,65.63262 91.613847,64.863354 90.858787,64.924931 Z m 31.546393,0.120406 c -0.74995,0.08477 -1.29121,0.7957 -2.235,2.440162 -1.64206,2.861617 -1.6426,3.051895 -0.0114,4.244703 h 5.1e-4 c 2.34732,1.716275 2.8202,1.600062 4.61316,-1.136365 2.07212,-3.162469 1.97808,-3.889224 -0.65991,-5.091162 -0.73216,-0.333584 -1.25742,-0.508199 -1.70739,-0.457338 z m 13.01936,11.909867 c -0.86918,-0.04164 -1.89611,0.512953 -3.30419,1.65313 -1.85109,1.49893 -2.00406,2.071089 -1.03766,3.876765 1.09414,2.04443 1.24187,2.063263 4.2416,0.537953 4.0601,-2.064435 3.91258,-1.815497 2.45877,-4.143417 -0.77747,-1.244894 -1.48933,-1.882786 -2.35852,-1.924431 z m -57.617667,0.01395 c -0.113038,-0.01318 -0.188164,4.31e-4 -0.214458,0.04444 -0.105026,0.176205 -0.808093,1.123638 -1.562695,2.105298 -1.223682,1.591862 -1.11588,1.981308 0.999421,3.607014 3.088042,2.373508 4.475713,2.327367 5.82445,-0.192752 1.151157,-2.150975 0.995961,-2.378038 -3.293853,-4.826063 -0.732801,-0.418349 -1.413756,-0.698416 -1.752865,-0.737939 z m 47.158357,0.06718 c -0.95325,-0.129447 -4.00244,1.78316 -13.14545,7.831561 -12.442021,8.230825 -13.495343,9.496578 -12.19822,14.66474 0.298675,1.189975 1.53229,2.649875 2.74143,3.244245 2.14575,1.05479 6.44202,0.7213 7.63365,-0.59272 1.63614,-1.80418 15.37115,-23.620444 15.37115,-24.415054 0,-0.419275 -0.0848,-0.689623 -0.40256,-0.732772 z m 13.95109,16.265155 c -3.65591,0 -3.87108,0.16125 -3.87108,2.903183 0,2.741932 0.21519,2.903183 3.87108,2.903183 3.65595,0 3.87108,-0.161288 3.87108,-2.903183 0,-2.74197 -0.2152,-2.903183 -3.87108,-2.903183 z m -63.870519,0.967382 c -3.483814,0 -3.870566,0.242065 -3.870566,2.419493 0,2.177243 0.386731,2.418972 3.870566,2.418972 3.483808,0 3.871081,-0.241618 3.871081,-2.418972 0,-2.177317 -0.387241,-2.419493 -3.871081,-2.419493 z m 57.850729,14.199139 c -0.70739,-0.0174 -0.99466,0.55845 -1.58905,1.86294 -0.97229,2.134 -0.77285,2.55281 2.03295,4.25917 l 3.11196,1.89239 1.19786,-2.15543 c 1.67252,-3.01005 1.6491,-3.06553 -1.99936,-4.80539 -1.39989,-0.66759 -2.20416,-1.04016 -2.75436,-1.05368 z m -51.972534,0.51573 c -0.55085,-0.004 -1.30243,0.41855 -2.733686,1.26401 -2.61498,1.54474 -2.841075,2.01496 -1.930114,4.01422 v 0.002 c 1.222536,2.68305 1.036529,2.65152 4.640027,0.78807 3.214513,-1.6623 3.40369,-2.24206 1.553911,-4.7718 -0.628891,-0.86094 -0.979292,-1.29193 -1.530138,-1.29605 z m 42.794284,10.57507 c -0.32705,-0.0224 -1.40453,0.39525 -2.60088,1.02216 l -2.48563,1.30224 1.90221,3.12798 c 2.12022,3.48643 2.61143,3.65089 5.15111,1.72599 1.84934,-1.40168 1.83349,-1.46039 -1.87431,-7.14117 -0.0142,-0.0218 -0.0458,-0.034 -0.0925,-0.0372 z m -32.627982,0.41134 c -0.709531,0.0605 -1.199057,0.78968 -2.092894,2.51819 -1.505879,2.9119 -1.496811,3.16575 0.151929,4.37131 0.962631,0.7039 2.091515,1.27951 2.508374,1.27951 0.797105,0 4.080124,-5.796 3.539834,-6.24923 -0.172325,-0.1446 -1.277921,-0.76439 -2.457214,-1.3777 -0.719349,-0.3741 -1.224309,-0.57838 -1.650029,-0.54208 z M 62.641907,121.368 c -0.363326,0.002 -5.561682,2.75055 -11.552267,6.10867 l -10.892358,6.10557 32.666222,18.50223 c 17.966269,10.17609 33.365286,18.42223 34.220136,18.32653 0.85485,-0.0965 16.19582,-8.42778 34.09094,-18.51412 l 32.53651,-18.33893 -10.86548,-6.07611 c -5.97589,-3.34185 -11.08257,-6.07413 -11.34866,-6.07043 -0.26612,0.003 -1.57305,1.78425 -2.9037,3.95789 -3.67654,6.00574 -11.9487,13.03858 -19.75073,16.79123 -19.73073,9.49009 -41.994366,5.58986 -57.691055,-10.10688 -3.590782,-3.59075 -6.825692,-7.46482 -7.188708,-8.60878 -0.36313,-1.14395 -0.957514,-2.07867 -1.32085,-2.07687 z m 44.338893,2.9006 c -2.74193,0 -2.90318,0.21469 -2.90318,3.87056 0,3.65602 0.16127,3.87108 2.90318,3.87108 2.74193,0 2.90318,-0.21517 2.90318,-3.87108 0,-3.65598 -0.16128,-3.87056 -2.90318,-3.87056 z m 72.58007,21.15426 -7.4998,4.14962 c -4.12497,2.28237 -19.04005,10.51087 -33.14475,18.2857 l -25.64495,14.13609 -0.25373,36.03914 h 5.2e-4 l -0.25373,36.03863 9.48055,-5.14439 c 5.21444,-2.82945 20.22891,-11.02331 33.36541,-18.20871 l 23.88433,-13.06431 0.0331,-36.11615 z m -145.160652,0.0408 0.03411,36.09547 0.03411,36.09548 33.111157,18.12344 33.110645,18.12344 0.25373,-35.48207 c 0.13978,-19.51521 -0.0778,-35.80864 -0.48369,-36.2071 -0.40585,-0.39855 -12.713313,-7.31978 -27.350274,-15.38097 C 58.473052,158.77019 43.77553,150.66456 40.448945,148.81903 Z" />
  </g>
</svg>
